Coordinates
version=1
nRows=13
nColumns=34
inDegrees=yes

Units are S.I. units (second, meters, Newtons, ...)
If the header above contains a line with 'inDegrees', this indicates whether rotational values are in degrees (yes) or radians (no).

endheader
time	pelvis_tilt	pelvis_list	pelvis_rotation	pelvis_tx	pelvis_ty	pelvis_tz	hip_flexion_r	hip_adduction_r	hip_rotation_r	knee_angle_r	ankle_angle_r	subtalar_angle_r	mtp_angle_r	hip_flexion_l	hip_adduction_l	hip_rotation_l	knee_angle_l	ankle_angle_l	subtalar_angle_l	mtp_angle_l	lumbar_extension	lumbar_bending	lumbar_rotation	arm_flex_r	arm_add_r	arm_rot_r	elbow_flex_r	pro_sup_r	arm_flex_l	arm_add_l	arm_rot_l	elbow_flex_l	pro_sup_l
      5.33333330	    -32.58452865	      0.21812121	      4.49838959	      0.43541194	      0.57916894	     -0.09720029	    118.14324457	    -21.44175834	      1.94332463	    116.31160546	     30.84008499	    -26.35877836	      0.00000000	    119.99999986	     -8.41367273	      3.58250759	    115.82315974	     27.03256392	     -6.95199000	      0.00000000	    -39.01878067	      6.33984756	    -13.67624524	    134.92744097	      3.38761457	     23.95360391	     47.59768322	     80.49713462	    -36.49409831	   -171.39423623	   -128.36708641	     44.25590363	     38.18646163
      5.35000000	    -33.57766660	      0.20363470	      4.16934077	      0.41556667	      0.58159956	     -0.09627732	    117.83377831	    -20.20372201	      1.42623228	    114.00577341	     28.91933884	    -28.90485559	      0.00000000	    119.99999986	     -8.47241050	      3.40671719	    113.86123416	     26.85454977	     -6.76230754	      0.00000000	    -37.77124076	      5.70098713	    -13.35985203	    135.76797531	      3.02666075	     24.43348907	     45.15583935	     80.35121775	    -36.45235997	   -172.63951907	   -129.20932509	     42.85191943	     37.53431656
      5.36666670	    -34.56761594	      0.18107839	      3.87221483	      0.39652245	      0.59451244	     -0.08450979	    117.56963967	    -18.55779470	      0.93803189	    111.26950181	     27.61023610	    -30.50983431	      0.00000000	    119.99999986	     -8.66113318	      3.35435268	    111.32096843	     25.53831988	     -7.43081100	      0.00000000	    -36.88103670	      4.90257749	    -12.72505294	    137.06806737	      2.44307142	     24.75290398	     43.75268638	     80.12840847	    -35.78373080	   -173.55194090	   -128.98442458	     41.44815749	     37.12688353
      5.38333330	    -35.60066635	      0.18911615	      3.70320299	      0.38997099	      0.60770680	     -0.07995334	    117.10726285	    -17.06374529	      0.51011997	    108.50921278	     26.04760337	    -32.58938468	      0.00000000	    119.99999986	     -8.80699431	      3.34865315	    108.82599199	     24.22387494	     -7.61585686	      0.00000000	    -36.04014938	      4.31561370	    -12.23274686	    138.34648264	      2.30907606	     25.86886758	     41.80084508	     79.65395225	    -34.54447096	   -174.50099597	   -129.13809924	     38.17654664	     36.06654917
      5.40000000	    -36.61927481	      0.21381244	      3.24970176	      0.41610166	      0.62866606	     -0.09088084	    116.01790486	    -16.00285819	      0.14346556	    106.06616126	     24.92432552	    -33.86483276	      0.00000000	    119.39550884	     -9.17878768	      3.11882508	    106.86182213	     23.14476564	     -8.52535502	      0.00000000	    -34.36779522	      3.71681938	    -11.79947678	    137.61612547	      1.72477159	     26.52867428	     43.28777459	     79.19944319	    -35.63409219	   -174.37348823	   -129.40100347	     39.49919377	     35.33717104
      5.41666670	    -37.15872172	      0.34164018	      3.48736985	      0.42525189	      0.64324176	     -0.09641398	    114.40047297	    -16.06715613	      0.39252200	    104.02889929	     23.60187902	    -35.00000000	      0.00000000	    117.69044546	     -8.89988503	      2.20405361	    104.73961593	     23.49900612	     -8.57736694	      0.00000000	    -32.91680538	      3.71281409	    -12.09889795	    135.89990906	      1.25326329	     26.77185267	     44.11980537	     79.00007032	    -37.34273894	   -174.08068086	   -129.60112559	     40.22819070	     34.81829818
      5.43333330	    -37.99899479	      0.93166675	      3.36759451	      0.44104668	      0.67569720	     -0.10335961	    112.20111423	    -16.14930302	      0.79100440	    101.12828994	     22.84390149	    -35.00000000	      0.00000000	    114.83547898	     -8.85831585	      0.54475707	    101.72363726	     24.18137545	     -8.94197299	      0.00000000	    -31.19170093	      3.10094488	    -12.14267452	    132.52069156	      0.41096930	     26.64238595	     47.19709100	     79.02210371	    -40.04073755	   -173.75746928	   -131.21054660	     42.83825725	     34.43716427
      5.45000000	    -37.74523976	      1.32507778	      2.89804284	      0.44781598	      0.69342235	     -0.09962020	    109.22441475	    -16.08275768	      0.56735865	     98.69816455	     22.33873070	    -35.00000000	      0.00000000	    111.12761906	     -9.12873275	     -0.38231902	     99.09729918	     24.97444817	     -9.27222171	      0.00000000	    -30.21404546	      2.41447778	    -11.70495964	    129.39793457	      0.16381151	     26.92385366	     48.86048954	     79.10859571	    -43.28010245	   -173.18898686	   -131.48523367	     44.68790952	     34.46802869
      5.46666670	    -38.35862554	      2.03006523	      2.69612761	      0.46642604	      0.71720627	     -0.09962321	    107.09193998	    -16.17860142	      0.72496707	     96.28823590	     21.92807547	    -34.61104517	      0.00000000	    107.91136850	     -9.57987896	     -2.10271065	     96.36255506	     25.49156064	     -9.90744218	      0.00000000	    -27.33896730	      1.28025351	    -10.21416746	    122.34402590	     -1.26173809	     25.45953409	     56.03095151	     80.01768034	    -52.08853570	   -172.53621876	   -138.59849356	     52.62251964	     35.29230821
      5.48333330	    -37.77624532	      2.71949044	      2.56756355	      0.46005215	      0.73824612	     -0.09768544	    104.36929875	    -16.37904717	      0.75162364	     93.82797405	     20.94821899	    -34.66089700	      0.00000000	    103.83541623	     -9.62364358	     -3.47553186	     93.45773444	     26.09421022	    -10.21977787	      0.00000000	    -26.02439349	      0.25159513	    -10.76837420	    116.62359555	     -0.36095318	     24.21782344	     60.56167989	     81.53054306	    -58.00005152	   -170.13483262	   -140.50824825	     58.87838406	     37.72066903
      5.50000000	    -37.21632963	      3.05125398	      2.40594480	      0.45965167	      0.75141373	     -0.09681706	    102.01743759	    -16.62047990	      0.27505947	     91.79584941	     20.87618150	    -34.00056150	      0.00000000	    100.84934431	     -9.65484398	     -4.24110988	     91.10431720	     26.30254272	    -10.56241924	      0.00000000	    -25.23950671	     -0.53555832	     -9.95354522	    113.64353783	     -1.58459887	     24.41532552	     63.43255020	     82.18805999	    -62.87635876	   -168.96984559	   -141.33935921	     63.83701917	     38.72837742
      5.51666670	    -37.04359288	      3.36774101	      2.25485604	      0.45818517	      0.76693975	     -0.09703897	    100.05923637	    -16.79351432	     -0.22778453	     89.40455750	     21.06846903	    -32.88867796	      0.00000000	     98.83207949	     -9.76542120	     -5.10285814	     88.88282177	     26.78386151	    -10.08078130	      0.00000000	    -24.44100289	     -1.15526636	     -8.42158718	    114.92253714	     -2.56717281	     25.65847909	     60.01250384	     82.75504753	    -66.57341735	   -169.54515603	   -144.43600087	     66.81596598	     39.62908258
      5.53333330	    -36.63466143	      3.52336331	      2.08194820	      0.45831996	      0.79163970	     -0.09626757	     97.42812890	    -16.99755956	     -1.11061467	     86.29432345	     20.56072194	    -32.05685065	      0.00000000	     96.41620754	     -9.72396525	     -5.88731325	     85.85019289	     26.33616513	     -9.73654852	      0.00000000	    -23.87567243	     -1.73715122	     -8.39094130	    113.27143630	     -2.68770821	     25.31662991	     60.12353252	     82.97327014	    -68.88145457	   -168.81925356	   -144.69032494	     67.98288718	     40.15335176
